<svg width="22" height="14" viewBox="0 0 22 14" fill="none" xmlns="http://www.w3.org/2000/svg">
<path d="M13.1484 5.80078C13.1836 6.15234 13.2539 6.46875 13.2539 6.92578C13.2539 10.793 10.6523 13.5 6.75 13.5C3.02344 13.5 0 10.5117 0 6.75C0 3.02344 3.02344 0 6.75 0C8.57812 0 10.0898 0.667969 11.2852 1.79297L9.45703 3.55078C8.96484 3.05859 8.08594 2.49609 6.75 2.49609C4.46484 2.49609 2.56641 4.39453 2.56641 6.75C2.56641 9.14062 4.46484 11.0391 6.75 11.0391C9.42188 11.0391 10.4414 9.10547 10.582 8.12109H6.75V5.80078H13.1484ZM19.6523 6.01172V4.07812H17.6836V6.01172H15.7148V7.98047H17.6836V9.94922H19.6523V7.98047H21.6211V6.01172H19.6523Z" fill="#5C8EE6"/>
</svg>
