<svg width="18" height="15" viewBox="0 0 18 15" fill="none" xmlns="http://www.w3.org/2000/svg">
<path d="M16.1367 3.62109C16.1367 3.79688 16.1367 3.9375 16.1367 4.11328C16.1367 9 12.4453 14.5898 5.66016 14.5898C3.55078 14.5898 1.61719 13.9922 0 12.9375C0.28125 12.9727 0.5625 13.0078 0.878906 13.0078C2.60156 13.0078 4.18359 12.4102 5.44922 11.4258C3.83203 11.3906 2.46094 10.3359 2.00391 8.85938C2.25 8.89453 2.46094 8.92969 2.70703 8.92969C3.02344 8.92969 3.375 8.85938 3.65625 8.78906C1.96875 8.4375 0.703125 6.96094 0.703125 5.16797V5.13281C1.19531 5.41406 1.79297 5.55469 2.39062 5.58984C1.37109 4.92188 0.738281 3.79688 0.738281 2.53125C0.738281 1.82812 0.914062 1.19531 1.23047 0.667969C3.05859 2.88281 5.80078 4.35938 8.85938 4.53516C8.78906 4.25391 8.75391 3.97266 8.75391 3.69141C8.75391 1.65234 10.4062 0 12.4453 0C13.5 0 14.4492 0.421875 15.1523 1.16016C15.9609 0.984375 16.7695 0.667969 17.4727 0.246094C17.1914 1.125 16.6289 1.82812 15.8555 2.28516C16.5938 2.21484 17.332 2.00391 17.9648 1.72266C17.4727 2.46094 16.8398 3.09375 16.1367 3.62109Z" fill="#5C8EE6"/>
</svg>
